<svg width="45" height="39" viewBox="0 0 45 39" fill="none" xmlns="http://www.w3.org/2000/svg">
<path d="M35.15 38.46H9.81001C9.53759 38.4592 9.27229 38.3729 9.05159 38.2132C8.83088 38.0535 8.66592 37.8285 8.58001 37.57L0.860006 14C0.796648 13.8074 0.779944 13.6025 0.811269 13.4022C0.842595 13.2019 0.921053 13.0119 1.04018 12.8479C1.15931 12.6838 1.31571 12.5504 1.49649 12.4587C1.67727 12.3669 1.87727 12.3194 2.08001 12.32H42.87C43.0727 12.3194 43.2727 12.3669 43.4535 12.4587C43.6343 12.5504 43.7907 12.6838 43.9098 12.8479C44.029 13.0119 44.1074 13.2019 44.1387 13.4022C44.1701 13.6025 44.1534 13.8074 44.09 14L36.37 37.57C36.286 37.8277 36.1229 38.0524 35.9039 38.2122C35.6849 38.372 35.4211 38.4587 35.15 38.46V38.46ZM10.74 35.88H34.21L41.09 14.88H3.86001L10.74 35.88Z" fill="#1E1E1E"/>
<path d="M7 14.34C6.74549 14.3392 6.49692 14.263 6.28558 14.1212C6.07423 13.9794 5.90956 13.7783 5.81228 13.5431C5.715 13.3079 5.68946 13.0492 5.73888 12.7995C5.7883 12.5499 5.91046 12.3204 6.09 12.14L17.64 0.620008C17.8864 0.405434 18.2051 0.292361 18.5316 0.303624C18.8582 0.314887 19.1683 0.449647 19.3993 0.680689C19.6304 0.911732 19.7651 1.22184 19.7764 1.54839C19.7877 1.87494 19.6746 2.1936 19.46 2.44001L7.94 14C7.81382 14.1164 7.66568 14.2064 7.50427 14.2648C7.34286 14.3231 7.17143 14.3487 7 14.34V14.34Z" fill="#1E1E1E"/>
<path d="M37.92 14.34C37.5809 14.3501 37.2511 14.2282 37 14L25.5 2.43999C25.3784 2.32166 25.2818 2.18016 25.2159 2.02387C25.1499 1.86757 25.1159 1.69964 25.1159 1.52999C25.1159 1.36035 25.1499 1.19242 25.2159 1.03612C25.2818 0.879825 25.3784 0.738332 25.5 0.619993C25.7417 0.379395 26.0689 0.244324 26.41 0.244324C26.7511 0.244324 27.0783 0.379395 27.32 0.619993L38.83 12.14C38.9516 12.2583 39.0482 12.3998 39.1141 12.5561C39.1801 12.7124 39.2141 12.8803 39.2141 13.05C39.2141 13.2196 39.1801 13.3876 39.1141 13.5439C39.0482 13.7002 38.9516 13.8417 38.83 13.96C38.589 14.2022 38.2617 14.3388 37.92 14.34Z" fill="#1E1E1E"/>
<path d="M22.48 37.64C22.3111 37.6413 22.1435 37.6092 21.9871 37.5455C21.8306 37.4817 21.6883 37.3877 21.5684 37.2687C21.4485 37.1497 21.3533 37.0081 21.2884 36.8522C21.2234 36.6962 21.19 36.529 21.19 36.36V14.27C21.1743 14.0917 21.1958 13.9121 21.2532 13.7426C21.3106 13.5731 21.4027 13.4174 21.5236 13.2854C21.6444 13.1534 21.7914 13.048 21.9552 12.9759C22.119 12.9038 22.296 12.8665 22.475 12.8665C22.654 12.8665 22.831 12.9038 22.9948 12.9759C23.1586 13.048 23.3056 13.1534 23.4264 13.2854C23.5473 13.4174 23.6394 13.5731 23.6968 13.7426C23.7542 13.9121 23.7757 14.0917 23.76 14.27V36.36C23.76 36.6995 23.6251 37.0251 23.3851 37.2651C23.145 37.5052 22.8195 37.64 22.48 37.64Z" fill="#1E1E1E"/>
<path d="M28 37.92C27.8784 37.9181 27.7575 37.9013 27.64 37.87C27.3125 37.7725 27.0365 37.55 26.8718 37.2505C26.7071 36.9511 26.6669 36.5988 26.76 36.27L33.27 13.64C33.3068 13.4664 33.3791 13.3022 33.4823 13.1577C33.5855 13.0133 33.7173 12.8917 33.8697 12.8005C34.022 12.7094 34.1915 12.6507 34.3676 12.6281C34.5437 12.6054 34.7225 12.6194 34.893 12.6691C35.0634 12.7188 35.2217 12.8031 35.3581 12.9168C35.4944 13.0305 35.6058 13.1711 35.6853 13.3298C35.7648 13.4885 35.8107 13.6619 35.8201 13.8392C35.8295 14.0165 35.8023 14.1938 35.74 14.36L29.24 37C29.1588 37.2658 28.9945 37.4985 28.7714 37.664C28.5482 37.8296 28.2779 37.9193 28 37.92Z" fill="#1E1E1E"/>
<path d="M17 37.92C16.7146 37.9315 16.4335 37.8471 16.2016 37.6804C15.9696 37.5137 15.8001 37.2742 15.72 37L9.20999 14.36C9.11732 14.0298 9.15886 13.6764 9.32555 13.3768C9.49225 13.0771 9.77061 12.8554 10.1 12.76C10.2622 12.7127 10.4321 12.698 10.6 12.7167C10.7679 12.7353 10.9304 12.7871 11.0783 12.8689C11.2261 12.9507 11.3562 13.0609 11.4612 13.1933C11.5662 13.3256 11.644 13.4775 11.69 13.64L18.19 36.27C18.2374 36.4328 18.2523 36.6034 18.2337 36.772C18.2152 36.9406 18.1635 37.1039 18.0818 37.2525C18.0001 37.4011 17.8898 37.5322 17.7574 37.6381C17.6249 37.7441 17.4729 37.8229 17.31 37.87C17.2087 37.8976 17.1048 37.9144 17 37.92V37.92Z" fill="#1E1E1E"/>
<path d="M38.58 26.53H5.91999C5.74172 26.5457 5.56211 26.5242 5.39261 26.4668C5.2231 26.4094 5.0674 26.3173 4.9354 26.1964C4.8034 26.0756 4.69799 25.9286 4.62588 25.7648C4.55377 25.601 4.51653 25.424 4.51653 25.245C4.51653 25.066 4.55377 24.889 4.62588 24.7252C4.69799 24.5614 4.8034 24.4144 4.9354 24.2936C5.0674 24.1727 5.2231 24.0806 5.39261 24.0232C5.56211 23.9658 5.74172 23.9443 5.91999 23.96H38.58C38.9012 23.9884 39.2002 24.136 39.418 24.3739C39.6357 24.6117 39.7565 24.9225 39.7565 25.245C39.7565 25.5675 39.6357 25.8783 39.418 26.1161C39.2002 26.354 38.9012 26.5016 38.58 26.53Z" fill="#1E1E1E"/>
</svg>
