<svg id="Layer_1" data-name="Layer 1" xmlns="http://www.w3.org/2000/svg" viewBox="0 0 45 45"><defs><style>.cls-1{fill:#1e1e1e;}</style></defs><path class="cls-1" d="M35.15,41.46H9.81a1.3,1.3,0,0,1-1.23-.89L.86,17a1.28,1.28,0,0,1,1.22-1.68H42.87A1.28,1.28,0,0,1,44.09,17L36.37,40.57A1.29,1.29,0,0,1,35.15,41.46ZM10.74,38.88H34.21l6.88-21H3.86Z"/><path class="cls-1" d="M7,17.34a1.29,1.29,0,0,1-.91-2.2L17.64,3.62a1.29,1.29,0,0,1,1.82,1.82L7.94,17A1.29,1.29,0,0,1,7,17.34Z"/><path class="cls-1" d="M37.92,17.34A1.31,1.31,0,0,1,37,17L25.5,5.44a1.27,1.27,0,0,1,0-1.82,1.29,1.29,0,0,1,1.82,0L38.83,15.14a1.27,1.27,0,0,1,0,1.82A1.29,1.29,0,0,1,37.92,17.34Z"/><path class="cls-1" d="M22.48,40.64a1.28,1.28,0,0,1-1.29-1.28V17.27a1.29,1.29,0,1,1,2.57,0V39.36A1.28,1.28,0,0,1,22.48,40.64Z"/><path class="cls-1" d="M28,40.92a1.49,1.49,0,0,1-.36-.05,1.3,1.3,0,0,1-.88-1.6l6.51-22.63a1.29,1.29,0,1,1,2.47.72L29.24,40A1.3,1.3,0,0,1,28,40.92Z"/><path class="cls-1" d="M17,40.92A1.28,1.28,0,0,1,15.72,40L9.21,17.36a1.3,1.3,0,0,1,.89-1.6,1.28,1.28,0,0,1,1.59.88l6.5,22.63a1.29,1.29,0,0,1-.88,1.6A1.48,1.48,0,0,1,17,40.92Z"/><path class="cls-1" d="M38.58,29.53H5.92a1.29,1.29,0,1,1,0-2.57H38.58a1.29,1.29,0,0,1,0,2.57Z"/></svg>