<svg width="360" height="467" viewBox="0 0 360 467" fill="none" xmlns="http://www.w3.org/2000/svg">
<path d="M174.66 83.5C177.44 87.09 179.02 88.86 180.24 90.84C180.598 91.7493 180.598 92.7607 180.24 93.67C178.84 94.03 176.24 94.47 176.04 93.98C172.67 86.68 166.13 85.34 159.22 84.55C159.04 84.55 158.9 84.3 157.33 82.98C167.924 80.9481 178.828 81.173 189.33 83.64C186.03 72.28 177.67 66.2 165.43 66.09C164.83 66.09 163.92 64.98 163.68 64.22C159.68 51.57 155.95 38.87 151.91 26.22C150.01 20.29 146.67 14.36 151.34 8.47C157 1.35 164.8 0.700004 173.21 2C209.07 7.54 230.57 31 246.69 61C253.89 74.43 260.57 88.15 272.4 98.38C273.02 98.91 273.61 99.46 274.14 99.93C276.44 94.87 278.67 89.93 281.7 83.29L273.25 93.75L271.91 92.64C272.785 91.4094 273.573 90.1196 274.27 88.78C276.71 83.14 279 77.44 281.45 71.78C282.06 70.7075 282.78 69.702 283.6 68.78C284.18 69.78 285.34 70.78 285.25 71.65C284.78 76.51 284.57 81.5 283.19 86.13C281.64 91.36 278.55 96.13 277.08 101.38C276.77 102.5 280.71 106.38 282.45 106.23C289.57 105.6 296.55 103.31 303.67 102.79C309.16 102.38 314.53 104.19 316.93 110.2C317.111 110.606 317.204 111.046 317.204 111.49C317.204 111.934 317.111 112.374 316.93 112.78C316.558 113.009 316.134 113.142 315.698 113.167C315.261 113.191 314.826 113.106 314.43 112.92C306.43 108.14 298.43 108.53 290.43 112.77C289.424 113.145 288.31 113.109 287.33 112.67C295.49 108.91 303.54 104.4 312.97 110.09C310.3 103.09 297.18 102.74 282.68 109.02C290.84 117.15 291.25 127.41 290.75 137.88C290.7 138.88 289.69 139.8 289.13 140.76C288.77 139.76 288.06 138.76 288.13 137.76C288.79 125.56 286.31 114.66 276.65 106.08C263.12 94.08 253.11 79.81 245.13 63.17C234.89 41.9 220 23.46 198.66 11.6C197.38 10.89 196.07 10.25 194.73 9.67C185.89 5.8 182.13 8.16 180.52 17.61C176.98 38.61 184.36 56.82 192.98 75.23C201.75 94 210.4 113 216.7 132.64C220.31 143.92 219.63 156.71 220.03 168.86C220.56 184.93 221.76 200.59 232.43 214.42C231.29 213.76 229.85 213.34 229.05 212.42C220.12 201.7 218.21 188.78 217.8 175.42C217.44 163.33 219.52 150.61 216.43 139.29C211.774 122.777 205.086 106.906 196.52 92.04C193.75 87.17 183.33 86.65 174.66 83.5ZM190.88 77.5L189.47 78.5C185.81 67.06 181.47 55.78 178.7 44.12C175.77 31.65 174.44 18.82 183.04 6.19C176.69 5.72 170.76 4.81 164.86 4.96C153.51 5.24 149.64 11.27 153.47 21.96C156.75 31.14 160.37 40.21 163.36 49.48C165.7 56.76 166.36 63.92 176.84 65.6C182 66.37 186.23 73.29 190.88 77.45V77.5Z" fill="#1E1E1E" stroke="#1E1E1E" stroke-width="2" stroke-linecap="round" stroke-linejoin="round"/>
<path d="M79.27 210.53C81.36 212.53 84.89 214.21 85.27 216.47C87.12 226.91 93.77 232.99 101.99 238.65C109.66 243.94 111.67 252.65 112.29 261.53C112.74 267.93 115.19 273.06 119.49 275.65C118.84 268.65 117.73 260.94 117.49 253.18C117.27 244.78 113.17 240.05 105.61 237.18C91.32 231.66 88.33 226.23 90.6 211C90.72 210.22 91.66 209.55 92.22 208.83C92.7056 209.482 93.0682 210.218 93.29 211C93.45 212.87 93.29 214.76 93.29 216.64C93.4 226.81 96.86 232.58 106.62 235.28C116.11 237.91 119.81 243.55 119.73 252.92C119.73 258 119.35 263.59 121.27 268.03C123.43 273.03 127.53 277.53 131.61 281.37C135.69 285.21 140.96 287.93 145.53 291.37C154.04 297.8 163.63 299.26 173.2 298.37C171.96 291.11 169.67 284.01 169.84 276.97C170.01 269.93 172.67 263.09 173.5 255.97C172.92 258.12 172.42 260.31 171.7 262.42C171.45 263.17 170.7 263.75 170.11 264.42C169.577 263.801 169.139 263.107 168.81 262.36C165.73 250.99 167.92 240.51 174.33 230.82C175.076 229.903 176.154 229.317 177.33 229.19C172.42 237.47 168.44 245.73 171.33 255.56L177.33 247.14C175.16 263.95 166.59 279.9 177.8 296.35C177.8 291.35 178.28 286.35 177.7 281.54C176.56 271.92 178.86 263.43 183.34 254.87C187.22 247.45 189.34 239.1 192.26 231.2C192.725 230.331 193.307 229.53 193.99 228.82C194.31 229.68 195.09 230.68 194.88 231.38C193.01 237.66 192.43 245.03 188.67 249.89C180.67 260.27 180.09 271.39 180.67 283.56C181.04 291.24 179.37 299.03 178.49 306.76C178.49 307.27 177.32 307.66 176.7 308.1C176.39 307.45 175.7 306.73 175.84 306.1C176.84 300.36 174.56 298.59 168.84 299.35C156.06 301.04 145.34 297.41 135.29 288.62C129.02 283.14 119.97 280.86 111.21 278.42L117.01 277.6C109.41 272.29 109.82 264.13 109.01 256.37C108.758 253.058 107.686 249.862 105.889 247.068C104.093 244.275 101.629 241.973 98.72 240.37C91.36 236.25 86.68 230.41 84.7 222C83.84 218.34 81.01 215.15 79.08 211.74L79.27 210.53Z" fill="#1E1E1E" stroke="#1E1E1E" stroke-width="2" stroke-linecap="round" stroke-linejoin="round"/>
<path d="M229.16 405.5C229.16 411.84 237.42 418.5 231.83 426.75C231.4 427.38 230.22 427.5 230.62 427.33C229.86 422 228.99 416.85 228.43 411.67C227.69 404.9 227.16 398.1 226.63 391.3C225.86 381.53 227.06 371.13 224.06 362.12C218.19 344.52 221 327.43 222.51 309.88C223.71 296 222.73 281.93 222.78 267.94C222.946 267.127 223.258 266.352 223.7 265.65C224.37 266.39 225.61 267.13 225.63 267.89C225.86 279.3 226.84 290.79 225.84 302.1C224.19 320.75 219.84 339.28 225.73 357.91C225.94 358.6 226.17 359.29 226.98 361.81V349.7C226.98 346.25 226.73 342.79 227.05 339.37C227.34 336.19 227.39 332.52 229 330.01C237.41 316.88 236 303.13 233.94 288.62C232.44 278.13 233.94 267.21 234.18 256.49C234.151 255.541 234.412 254.606 234.93 253.81C242.76 244.08 242.79 232.62 243.09 220.92C243.22 215.68 245.81 210.36 247.92 205.35C250.79 198.55 254.23 191.99 257.52 185.35C257.9 184.58 258.86 184.1 259.52 183.48C259.65 184.39 260.16 185.48 259.85 186.19C258.515 189.804 256.893 193.305 255 196.66C248.33 207.23 245.64 218.66 245.64 231.12C245.64 236.45 244.47 242.47 241.81 246.98C234.19 259.92 234.55 273.8 236.96 287.36C239.47 301.55 239.26 314.17 233.11 327.92C229.05 337.01 230.37 348.85 230.59 359.42C230.8 369 233.07 378.51 233.87 388.1C234.2 392.05 233.28 396.16 232.5 400.1C232.14 401.71 230.69 403.08 229.16 405.5ZM230.16 382.63H229.35C228.97 388.89 228.597 395.157 228.23 401.43L230.16 401.48V382.63Z" fill="#1E1E1E" stroke="#1E1E1E" stroke-width="2" stroke-linecap="round" stroke-linejoin="round"/>
<path d="M153.57 209.55C155.23 184.1 157.64 173.48 161.66 172.3C162.13 182.75 162.66 193.3 163.1 203.85L165.03 203.9C161.41 190.64 169.22 180.43 173.45 169.17C175.58 163.5 175.55 157.06 176.94 151.08C178.21 145.59 180.02 140.21 181.75 134.83C181.93 134.27 183.12 134.03 184.12 133.5C180.2 149.19 188.06 166.23 175.81 179.99C184.86 170.55 189.9 159.99 188.09 146.76C186.69 136.54 191.09 127.83 196.92 119.76C197.763 118.877 198.742 118.134 199.82 117.56C197.03 124.34 194.04 130.88 191.69 137.64C190.671 140.619 190.4 143.802 190.9 146.91C192.66 156.8 189.77 165.14 183.81 172.91C176.44 182.51 174.45 193.59 175.51 205.43C175.62 206.69 174.57 208.04 174.07 209.35C173.55 208.04 172.69 206.76 172.58 205.43C171.58 193.09 171.18 180.89 178.1 169.65C179.68 167.07 179.59 163.46 178.91 159.9C174.91 171.32 170.52 182.63 167.18 194.24C166.11 197.92 168.05 202.41 168.24 206.54C168.32 208.2 167.38 209.9 166.9 211.54C165.57 210.41 163.41 209.54 163.07 208.12C161.54 202.02 160.46 195.79 159.39 189.59C159.235 187.787 159.235 185.973 159.39 184.17L157.39 184.1C157 191.54 156.39 198.99 156.29 206.44C156.22 213.44 160.12 220.72 155.35 227.2L152.13 227.32C150.78 213.92 148.61 200.53 148.48 187.12C148.43 182.01 153.03 176.86 155.48 171.73C158.09 166.32 160.64 160.88 163.32 155.5C163.7 154.72 164.62 154.2 165.32 153.56C165.48 154.43 166.05 155.48 165.75 156.13C163.89 160.13 162.44 164.61 159.75 168.04C149.69 180.73 148.07 194.43 153.57 209.55Z" fill="#1E1E1E" stroke="#1E1E1E" stroke-width="2" stroke-linecap="round" stroke-linejoin="round"/>
<path d="M82.18 260.11C83.2405 260.542 84.2472 261.096 85.18 261.76C91.48 267.49 97.71 273.29 103.97 279.06L106.45 276.58C102.51 272.5 99.21 267.34 94.45 264.58C85.59 259.39 75.9 255.64 66.61 251.18C64.02 249.94 61.61 248.35 57.68 246.1C60.15 245.89 61.17 245.48 61.84 245.8C72.06 250.707 82.25 255.677 92.41 260.71C100.29 264.61 106.26 270.25 109.03 278.89C109.564 280.089 110.502 281.062 111.68 281.64C121.54 286.96 125.81 295.24 125.53 306.32C125.26 317.05 124.78 327.82 125.46 338.5C126.02 347.5 128.46 356.18 136.35 362.21C128.95 365.55 113.08 341.68 109.65 322.71C99.45 321.91 89.82 311.5 89.97 301.01C90.0178 294.324 90.4485 287.647 91.26 281.01C91.9 276.01 91.77 272.01 87.26 268.69C84.8 266.85 83.26 263.69 81.33 261.21L82.18 260.11ZM110.18 283.85C112.81 306.85 106.08 331.16 122.72 348.33C122.72 337.46 122.45 324.85 122.8 312.25C123.12 301 122.19 290.5 110.19 283.85H110.18ZM94.18 274.99C93.68 284.09 92.86 292.56 92.86 301.04C92.86 309.52 100.71 318.3 109.24 320.32C108.74 309.09 108.34 297.87 107.65 286.67C107.53 284.67 106.77 282.09 105.36 281.06C102.24 278.75 98.51 277.26 94.19 275L94.18 274.99Z" fill="#1E1E1E" stroke="#1E1E1E" stroke-width="2" stroke-linecap="round" stroke-linejoin="round"/>
<path d="M300.76 173.21C301.68 173.92 302.98 174.43 303.47 175.37C308.68 185.37 307.14 195.82 305.09 206.24C303.74 213.07 301.64 219.84 301.09 226.73C300.92 230.724 302.116 234.657 304.48 237.88C310.61 245.78 311.85 253.32 307.04 262.43C298.97 277.71 294.92 294.13 295.95 311.52C296.17 315.14 297.45 318.76 298.66 322.23C300.74 328.23 304.5 333.92 305.08 339.98C305.75 346.91 303.76 354.1 302.84 361.16C302.488 362.963 302.041 364.745 301.5 366.5C300.63 357 300.5 350.62 299.37 344.4C297.94 336.21 295.85 328.13 293.92 320.04C293.531 318.311 292.822 316.669 291.83 315.2C284.19 304.48 283.75 293.77 290.31 282.2C293.21 277.07 294.6 270.96 295.89 265.11C296.43 262.66 294.89 259.77 294.39 257.06C294.277 256.218 294.213 255.37 294.2 254.52C295.03 254.9 296.58 255.27 296.58 255.66C296.58 261.66 297.35 267.92 296.17 273.74C294.54 281.74 290.72 289.39 289.27 297.44C288.53 301.52 290.93 306.17 292.36 312.55C293.65 302.36 293.93 294.19 295.88 286.45C297.97 278.16 301.31 270.12 304.76 262.26C307.21 256.68 309.26 250.76 305.44 245.92C296.28 234.28 298.36 222.23 301.73 209.45C304.84 197.72 306.38 185.77 300.76 173.21Z" fill="#1E1E1E" stroke="#1E1E1E" stroke-width="2" stroke-linecap="round" stroke-linejoin="round"/>
<path d="M152.86 145.87C148.41 153.69 143.35 161.48 139.5 169.87C137.74 173.7 138.37 178.63 138.31 183.23C140.65 169.51 150.19 160.8 158.85 151.11C164.44 144.85 168.42 136.74 171.6 128.84C176.68 116.22 185.41 108.61 198.35 105.38C199.163 105.225 199.985 105.115 200.81 105.05C200.66 105.56 200.63 105.9 200.54 105.93C183.96 109.83 178.3 123.76 171.05 136.8C166.16 145.59 159.62 153.66 152.83 161.16C144 170.83 141 182.39 139.2 194.71C138.95 196.38 137.92 197.93 137.26 199.54C136.5 198.01 135.26 196.54 135.05 194.94C133.44 179.69 134.91 165.15 145.41 152.85C145.921 151.999 146.289 151.07 146.5 150.1C145.562 149.784 144.587 149.589 143.6 149.52C138.74 149.8 133.87 150.03 129.03 150.58C117.03 151.94 110.68 159.75 106.61 170.25C105.85 172.25 104.36 173.9 102.7 176.49C98.6 164.96 104.81 151.95 115.46 147.66C125.89 143.45 136.84 140.29 146.7 135.04C153.45 131.44 158.7 125.04 164.7 119.93C165.61 119.03 166.678 118.304 167.85 117.79C162.74 128.49 154.28 135.14 143.28 138.91C135.28 141.64 127.46 144.74 119.51 147.57C111.16 150.57 107.04 156.78 105.35 166.98C113.21 150.61 126.61 148.59 141.04 148.22C145.31 148.12 149.59 146.55 152.86 145.87Z" fill="#1E1E1E" stroke="#1E1E1E" stroke-width="2" stroke-linecap="round" stroke-linejoin="round"/>
<path d="M266.41 263.43C255.98 275.43 259.06 287.7 262.77 300.85C264.22 306 260.97 312.93 258.7 318.58C256.17 324.86 255.11 331.63 259.95 335.8C266.11 341.09 265.77 347.5 265.55 353.66C265.33 359.82 262.11 365.93 261.55 372.17C261.032 377.549 261.715 382.977 263.55 388.06C266.37 395.29 264.84 401.75 262.64 408.42C259.97 416.51 257.79 424.47 265.44 431.95C264.32 431.58 262.9 431.52 262.14 430.79C257.24 426.07 256.22 420.49 258 413.89C259.78 407.29 263.77 399.18 261.47 394.18C255.47 381.18 259.71 369.66 262.19 357.48C262.97 353.64 262.31 349.48 261.81 345.43C261.66 357.54 256.6 367.59 249.81 377.15C245.7 382.9 247.08 385.15 253.01 388.86C255.29 390.29 257.23 394.35 257.08 397.08C256.79 402.41 254.65 407.6 253.8 412.93C253.33 415.84 253.97 418.93 254.05 421.93C254.05 423.01 253.96 424.09 253.91 425.17C253.03 424.25 251.38 423.3 251.41 422.43C251.67 416.43 251.64 410.38 252.92 404.6C254.87 395.8 254.12 393.49 246.97 388.17C245.44 387.04 244.78 382.78 245.64 380.79C247.64 376.05 251.07 371.92 253.53 367.34C259.59 356.09 260.67 344.73 255.35 332.58C253.86 329.16 254.45 323.65 256.23 320.21C261.23 310.56 261.96 301.12 257.43 291.41C252.49 280.83 257.1 272.26 262.67 263.81C263.05 263.23 264.06 263.06 264.77 262.69L266.41 263.43Z" fill="#1E1E1E" stroke="#1E1E1E" stroke-width="2" stroke-linecap="round" stroke-linejoin="round"/>
<path d="M189.75 97.12C183.04 97.89 176.35 98.84 169.62 99.37C163.91 99.81 158.15 99.56 152.43 99.98C145.43 100.5 139.29 103.62 136.31 109.88C128.16 127.04 114.75 134.58 96.09 135.49C90.58 135.76 85.27 140.23 80.67 143.6C88.74 142.66 96.81 141.77 104.86 140.75C116.59 139.28 126.72 135.29 133.25 124.41C139.13 114.62 149.25 112.08 159.83 111.03C156.78 111.77 153.45 111.97 150.74 113.36C146.23 115.67 140.42 117.77 138.13 121.69C129.03 137.27 114.83 142.07 98.31 142.59C88.89 142.88 81.53 146.24 75.69 153.78C72.1036 158.234 68.0839 162.32 63.69 165.98C61.9 167.53 59.01 167.81 56.62 168.67C56.17 167.99 55.72 167.3 55.26 166.67C56.3849 166.18 57.4571 165.577 58.46 164.87C62.34 161.54 67.12 158.74 69.77 154.59C78.68 140.59 91.5 133.03 106.92 128.22C115.12 125.66 119.78 118.42 124.92 111.58C128.4 106.91 134.92 104.32 140.5 101.45C151.18 95.91 162.86 97.76 174.26 97.55C179.38 97.46 184.49 96.55 189.61 96.06C189.64 96.38 189.69 96.75 189.75 97.12ZM136.1 102.84C132.86 106.173 129.62 109.507 126.38 112.84C121.44 117.98 116.75 123.38 111.47 128.14C109.24 130.14 105.78 130.79 103.24 131.89C122.19 132.5 128.39 116.6 136.1 102.84Z" fill="#1E1E1E" stroke="#1E1E1E" stroke-width="2" stroke-linecap="round" stroke-linejoin="round"/>
<path d="M11.22 247.74L18.05 251.88C14.75 251.3 13.26 251.35 12.05 250.78C-1.41999 244.38 -2.94999 226.78 10.22 217.03C27.01 204.54 44.61 193.12 62.22 181.84C65.9385 179.594 68.8214 176.195 70.43 172.16C71.75 169.08 74.36 166.57 76.43 163.81L77.89 165L73.3 171.6L74.92 172.82L90.12 153.34L91.12 154.12C88.92 159.64 86.7167 165.167 84.51 170.7L85.3 170.97C89.5867 165.15 93.88 159.327 98.18 153.5L99.66 154.56C98.73 156.02 97.66 157.42 96.89 158.95C93.64 165.12 90.08 171.16 87.38 177.57C85.45 182.15 84.23 186.84 79.19 188.48L83.7 168.54C75.2 172.85 71.64 178.13 72.56 186.23C72.8 188.33 71.66 190.59 71.15 192.78C69.9582 190.812 68.9314 188.748 68.08 186.61C67.54 184.88 67.81 182.89 67.68 180.22C62.6 183.22 57.68 185.82 53.14 188.95C39.65 198.22 26.14 207.49 13 217.22C6.00001 222.43 2.69001 230.07 4.80001 238.75C5.61001 242.1 9.08001 244.82 11.33 247.82L11.22 247.74Z" fill="#1E1E1E" stroke="#1E1E1E" stroke-width="2" stroke-linecap="round" stroke-linejoin="round"/>
<path d="M208.81 144.55C207.81 151.81 206.72 160.06 205.58 168.31C204.15 178.67 205.46 188.8 210.94 197.58C217.82 208.58 216.72 219.47 213.77 231.21C211.45 240.46 210.77 250.12 209.33 259.59C209.22 260.3 208.44 260.9 207.97 261.59C207.42 260.99 206.38 260.38 206.39 259.79C206.63 252.06 207.67 244.3 207.21 236.62C206.48 224.35 204.79 212.15 203.5 199.91C202.62 191.63 200.93 183.33 201.09 175.06C201.21 169.12 204.44 163.3 205.09 157.29C205.84 150.64 205.23 143.83 205.3 137.09C205.455 136.214 205.745 135.367 206.16 134.58C206.82 135.28 207.9 135.9 208.05 136.7C208.5 138.91 208.53 141.23 208.81 144.55ZM211.29 228.48C215.16 217.31 213.68 206.48 206.29 195.87C208 207.26 209.67 218 211.29 228.48V228.48Z" fill="#1E1E1E" stroke="#1E1E1E" stroke-width="2" stroke-linecap="round" stroke-linejoin="round"/>
<path d="M270.89 261.75C268.08 250.46 264.68 240.42 263.24 230.11C260.87 213.11 263.16 197.22 278.15 185.62C286.46 179.19 288.62 170.21 286.88 160.07C286.73 159.17 287.51 158.07 287.88 157.13C288.47 157.94 289.42 158.68 289.6 159.58C291.55 169.1 291.14 178.18 282.22 184.27C265.99 195.36 264.37 212.05 265.76 229.11C266.52 238.46 270.62 247.51 272.91 256.78C273.56 259.41 273.11 262.31 273.17 265.08C270.72 263.08 266.78 261.59 266.08 259.13C263.214 249.602 261.107 239.861 259.78 230C258.15 216.18 258.67 202.34 263.55 188.93C264.64 185.93 264.2 182.35 264.63 179.06C264.92 178.19 265.36 177.378 265.93 176.66C266.43 177.4 267.44 178.22 267.33 178.84C266.62 182.84 265.73 186.74 264.78 190.65C259.1 214 261 236.9 269.35 259.34C269.798 260.183 270.313 260.989 270.89 261.75Z" fill="#1E1E1E" stroke="#1E1E1E" stroke-width="2" stroke-linecap="round" stroke-linejoin="round"/>
<path d="M197.14 45.15C195.87 53.15 199.42 59.27 204.03 64.6C212.44 74.33 217.98 85.65 218.73 98.1C219.5 110.82 225.17 119.62 234.17 127.89C233.03 127.603 231.934 127.166 230.91 126.59C221.72 119.69 216 111.11 215.69 99.01C215.37 86.41 210.19 75.53 201.96 65.91C196.43 59.44 192.42 52.1 194.53 43.02C194.96 41.9165 195.539 40.8768 196.25 39.93C197.25 40.7 198.9 41.3 199.14 42.25C202.23 54.82 212.14 60.47 222.52 65.63C234.44 71.53 239.9 81.26 239.64 94.45C239.52 100.45 239.64 106.55 239.55 112.6C239.55 113.45 238.61 114.29 238.11 115.13C237.72 114.31 237.01 113.5 237 112.67C236.92 106.93 236.94 101.19 237 95.45C237.15 82.6 231.94 72.88 220.32 66.95C210.54 62 200.11 57.72 197.14 45.15Z" fill="#1E1E1E" stroke="#1E1E1E" stroke-width="2" stroke-linecap="round" stroke-linejoin="round"/>
<path d="M336.25 318.28C331.39 308.96 335.16 300.28 336.25 291.62C337.25 284.03 337.96 276.38 338.41 268.73C338.49 266.517 337.781 264.348 336.41 262.61C330.83 256.22 330.74 249.18 332.73 241.51C334.2 235.8 332.87 230.74 328.33 226.09C329.61 226.64 331.2 226.89 332.13 227.8C336.57 232.16 336.35 237.49 335.53 243.22C334.98 247.05 334.28 252.03 336.14 254.82C342.95 265 342.02 275.44 339.48 286.37C338.317 291.227 337.495 296.159 337.02 301.13C336.24 310.13 339.2 317.39 347.41 322.2C349.41 323.38 350.71 325.84 352.33 327.71C350.23 326.85 348.1 326.05 346.02 325.13C343.94 324.21 342.02 322.87 339.89 322.21C326.81 318.21 321.8 308.41 326.35 295.52C328.94 288.19 331.51 280.86 334.19 273.58C334.4 273 335.37 272.71 335.99 272.29C336.27 273.06 336.99 273.98 336.78 274.57C335 279.57 333.25 284.57 331.12 289.38C328.27 295.84 324.87 302.32 328.61 309.31C330.49 312.68 333.69 315.31 336.25 318.28Z" fill="#1E1E1E" stroke="#1E1E1E" stroke-width="2" stroke-linecap="round" stroke-linejoin="round"/>
<path d="M316.1 170.08C315.21 162 313.62 154.87 307.43 151.18C301.77 147.81 294.91 146.47 288.05 144.05C290.45 144.2 292.64 144.21 294.81 144.47C311.09 146.37 317.92 153.84 318.47 170.3C318.82 180.93 318.94 191.58 319.47 202.2C319.89 209.74 321.69 216.84 329.35 220.75C328.98 221.32 328.61 221.89 328.25 222.46C324.99 220.35 319.83 218.88 318.88 216.01C316.67 209.35 316.21 202.01 315.59 194.94C315.14 189.68 316.2 184.25 315.46 179.06C313.35 164.39 302.17 158.06 290.1 152.72C288.631 152.232 287.336 151.329 286.37 150.12C298.13 153.26 308.66 158.33 316.1 170.08Z" fill="#1E1E1E" stroke="#1E1E1E" stroke-width="2" stroke-linecap="round" stroke-linejoin="round"/>
<path d="M122.91 236.77C122.22 237.2 121.48 237.99 121.01 237.85C120.687 237.666 120.408 237.413 120.193 237.108C119.979 236.804 119.835 236.457 119.77 236.09C118.91 231.38 118.23 226.64 117.32 221.94C116.927 220.781 116.379 219.681 115.69 218.67C114.81 219.42 113.98 220.23 113.06 220.91C112.372 221.336 111.654 221.711 110.91 222.03L109.55 220.55L116.25 214.05C118.32 218.05 120.38 222 122.67 226.4C122.3 226.5 123.24 226.26 122.3 226.5C126.36 233.42 130.38 239.56 133.59 246.09C135.03 249.02 134.87 252.74 136.27 256.15C136.27 252.623 136.27 249.093 136.27 245.56C136.27 241.83 135.65 237.98 136.4 234.42C137.08 231.25 139.26 228.42 141.17 224.62C140.04 236.9 138.53 247.62 138.26 258.42C138.09 265.32 139.78 272.26 140.59 279.18C140.645 280.113 140.645 281.047 140.59 281.98C139.71 281.49 138.28 281.19 138.05 280.49C136.22 274.95 133.46 269.39 133.23 263.74C132.88 255.16 132.69 247.08 125.51 240.97C124.32 240 123.76 238.19 122.91 236.77Z" fill="#1E1E1E" stroke="#1E1E1E" stroke-width="2" stroke-linecap="round" stroke-linejoin="round"/>
<path d="M324.57 261.83C321.76 270.15 319.57 278.19 316.36 285.83C306.97 308.06 308.91 317.48 326.61 333.95C334.67 341.45 342.4 349.32 350.17 357.13C350.87 357.84 350.71 359.38 350.96 360.54C349.895 360.011 348.89 359.371 347.96 358.63C340.85 351.63 333.96 344.36 326.7 337.57C304.24 316.66 302.7 308.96 315.01 280.93C317.582 275.038 319.312 268.814 320.15 262.44C320.57 259.2 318.09 255.58 316.93 252.12C316.67 251.35 316.48 250.55 316.25 249.76C317.14 249.94 318.55 249.83 318.83 250.33C320.79 253.94 322.54 257.7 324.57 261.83Z" fill="#1E1E1E" stroke="#1E1E1E" stroke-width="2" stroke-linecap="round" stroke-linejoin="round"/>
<path d="M115 161.75C112.57 169.68 110 178.1 107.39 186.53L109.59 187.32C111.02 176.45 117.88 169.32 126.4 160.9C124.76 172.45 113.35 178.43 116.17 188.16C122.9 179.16 130.07 169.65 137.23 160.09L138.79 161.16C135.85 165.33 133.52 170.16 129.79 173.51C122.38 180.24 119.23 188.51 118.43 198.08C118.33 199.28 117.34 200.4 116.76 201.55C116.096 200.558 115.574 199.477 115.21 198.34C114.39 193.65 113.77 188.92 113.01 183.79C112.36 187.4 111.82 190.79 111.11 194.04C111.014 194.41 110.835 194.753 110.585 195.043C110.335 195.333 110.022 195.561 109.67 195.71C109.18 195.8 108.28 195.04 107.94 194.44C103.53 186.85 107.29 167.44 114.2 162.02C114.8 161.58 115.67 161.54 115 161.75Z" fill="#1E1E1E" stroke="#1E1E1E" stroke-width="2" stroke-linecap="round" stroke-linejoin="round"/>
<path d="M343.52 330.07C345.21 330.98 347.22 331.57 348.52 332.85C356.79 340.85 357.21 351.53 358.38 362.01C361.31 388.01 348.95 405.76 328.28 419.45C314.91 428.31 301.64 437.38 288.9 447.11C282.95 451.65 278.39 458.01 273.16 463.5C272.244 464.47 271.114 465.213 269.86 465.67C276.5 454.58 286.17 446.67 296.52 439.41C308.52 431 320.81 422.87 332.69 414.25C352.51 399.86 358.81 380.1 355.07 356.44C353.56 346.73 351.83 337.26 343.52 330.07Z" fill="#1E1E1E" stroke="#1E1E1E" stroke-width="2" stroke-linecap="round" stroke-linejoin="round"/>
<path d="M183.91 309.52C182.26 315.84 181.42 323.08 178.49 329.34C174.49 337.83 174.94 345.34 179.58 353.06C184.66 361.49 187.99 370.45 186.19 380.4C184.31 390.83 181.83 401.16 179.52 411.51C179.39 412.1 178.46 412.51 177.9 413.02C177.57 412.28 176.81 411.44 176.96 410.81C178.26 405.25 179.34 399.58 181.22 394.2C185.89 380.87 185.04 368.13 177.67 356.07C172.1 346.95 170.8 338.25 175.94 328.12C178.89 322.3 179 315.06 180.47 308.48C180.904 306.995 181.432 305.539 182.05 304.12L183.91 309.52Z" fill="#1E1E1E" stroke="#1E1E1E" stroke-width="2" stroke-linecap="round" stroke-linejoin="round"/>
<path d="M153.4 228.77C148.69 240.85 150.6 251.06 157.88 259.25L163.72 234.51L165.43 235.05C163.16 253.49 156.61 271.87 164.63 291.48C163.25 290.75 161.57 290.42 160.88 289.42C158.796 286.571 157.304 283.334 156.489 279.899C155.675 276.464 155.557 272.901 156.14 269.42C156.69 265.91 155.34 261.55 153.54 258.32C148.64 249.55 147.32 240.73 151.09 231.32C151.5 230.37 152.61 229.64 153.4 228.77Z" fill="#1E1E1E" stroke="#1E1E1E" stroke-width="2" stroke-linecap="round" stroke-linejoin="round"/>
<path d="M186.41 309.75C192.78 307.3 200.67 313.75 199.76 321.68C198.69 331.03 195.76 340.24 193.03 349.3C188.44 364.3 188.66 367.35 197.03 380.64C195.89 380.07 194.44 379.78 193.65 378.89C186.65 370.89 186.65 361.62 189.29 352.1C191.93 342.58 195.49 333.31 197.4 323.69C198.13 320.05 195.4 315.69 193.92 310.76C192.03 316.12 190.45 319.42 189.74 322.9C188.63 328.28 188.13 333.78 187.33 339.22C187.143 340.104 186.902 340.975 186.61 341.83C185.92 341.14 184.61 340.37 184.61 339.78C185.24 334.49 185.09 328.78 187.21 324.08C189.62 318.8 191.21 314.49 186.41 309.75Z" fill="#1E1E1E" stroke="#1E1E1E" stroke-width="2" stroke-linecap="round" stroke-linejoin="round"/>
<path d="M67.17 263C60.47 275.68 48.89 281.4 35.49 283.43C29.2697 284.436 22.902 284.012 16.87 282.19C5.87 278.55 3.31 269.65 9.27 259.73C10.6257 257.229 12.679 255.176 15.18 253.82C13.7 256.74 12.02 259.58 10.8 262.62C6.97 272.12 9.95 278.28 19.7 281.47C34.77 286.4 55.61 278.47 63.62 264.72C64.2175 263.436 64.6864 262.096 65.02 260.72L67.17 263Z" fill="#1E1E1E" stroke="#1E1E1E" stroke-width="2" stroke-linecap="round" stroke-linejoin="round"/>
<path d="M70.92 211.49C72.3498 212.279 73.7201 213.171 75.02 214.16C75.8185 214.857 76.3373 215.82 76.48 216.87C77.02 227.49 83.73 233.15 92.07 238.43C95.18 240.43 96.15 245.84 97.93 249.77C98.1 250.14 97.08 251.04 96.61 251.69C96.21 251.22 95.49 250.75 95.46 250.26C95.12 242.49 90.23 238.18 83.76 235.46C78.54 233.26 76.21 229.56 75.17 224.18C74.37 220.06 72.52 216.13 70.92 211.49Z" fill="#1E1E1E" stroke="#1E1E1E" stroke-width="2" stroke-linecap="round" stroke-linejoin="round"/>
<path d="M197.51 366C199.93 367.89 201.4 368.44 201.7 369.36C204.7 378.68 203.15 387.11 196.76 394.71C192.85 399.37 189.33 404.35 185.56 409.13C185.1 409.72 184.2 409.95 182.34 409.13C185.34 405.6 188.13 401.88 191.34 398.57C200.05 389.71 202.56 379.17 197.51 366Z" fill="#1E1E1E" stroke="#1E1E1E" stroke-width="2" stroke-linecap="round" stroke-linejoin="round"/>
<path d="M31.24 285.58C32.4243 285.863 33.5695 286.289 34.65 286.85C48.78 296.43 63.65 301.52 80.43 294.24C83.09 293.08 85.38 291.08 88.84 288.81C78.41 302.37 48.19 301.61 31.24 285.58Z" fill="#1E1E1E" stroke="#1E1E1E" stroke-width="2" stroke-linecap="round" stroke-linejoin="round"/>
<path d="M11.32 247.82C13.81 245.94 16.41 244.18 18.72 242.11C19.9 241.05 20.54 239.41 21.43 238.03C20.0613 237.422 18.6291 236.97 17.16 236.68C14.91 236.48 12.57 236.99 10.36 236.61C9.51001 236.47 8.62001 234.8 8.36001 233.68C8.21001 233.08 9.30001 232.16 9.98001 233.68C12.0911 234.417 14.2493 235.012 16.44 235.46C17.93 235.68 20.02 234.46 20.97 235.13C22.2582 236.372 23.2171 237.915 23.76 239.62C19.76 242.52 15.47 245.13 11.26 247.78L11.32 247.82Z" fill="#1E1E1E" stroke="#1E1E1E" stroke-width="2" stroke-linecap="round" stroke-linejoin="round"/>
</svg>
