<svg width="45" height="39" fill="none" xmlns="http://www.w3.org/2000/svg"><path d="M35.15 38.46H9.81a1.3 1.3 0 01-1.23-.89L.86 14a1.28 1.28 0 011.22-1.68h40.79A1.28 1.28 0 0144.09 14l-7.72 23.57a1.29 1.29 0 01-1.22.89zm-24.41-2.58h23.47l6.88-21H3.86l6.88 21z" fill="#1E1E1E"/><path d="M7 14.34a1.29 1.29 0 01-.91-2.2L17.64.62a1.29 1.29 0 011.82 1.82L7.94 14a1.29 1.29 0 01-.94.34zm30.92 0A1.31 1.31 0 0137 14L25.5 2.44a1.268 1.268 0 010-1.82 1.29 1.29 0 011.82 0l11.51 11.52a1.268 1.268 0 010 1.82 1.29 1.29 0 01-.91.38zm-15.44 23.3a1.28 1.28 0 01-1.29-1.28V14.27a1.291 1.291 0 112.57 0v22.09a1.28 1.28 0 01-1.28 1.28zm5.52.28a1.489 1.489 0 01-.36-.05 1.3 1.3 0 01-.88-1.6l6.51-22.63a1.29 1.29 0 112.47.72L29.24 37a1.3 1.3 0 01-1.24.92zm-11 0a1.28 1.28 0 01-1.28-.92L9.21 14.36a1.3 1.3 0 011.39-1.643 1.28 1.28 0 011.09.923l6.5 22.63A1.29 1.29 0 0117 37.92z" fill="#1E1E1E"/><path d="M38.58 26.53H5.92a1.291 1.291 0 110-2.57h32.66a1.29 1.29 0 010 2.57z" fill="#1E1E1E"/></svg>