<svg id="Layer_1" data-name="Layer 1" xmlns="http://www.w3.org/2000/svg" viewBox="0 0 45 45"><defs><style>.cls-1{fill:#1e1e1e}</style></defs><path class="cls-1" d="M35.15 41.46H9.81a1.3 1.3 0 01-1.23-.89L.86 17a1.28 1.28 0 011.22-1.68h40.79A1.28 1.28 0 0144.09 17l-7.72 23.57a1.29 1.29 0 01-1.22.89zm-24.41-2.58h23.47l6.88-21H3.86z"/><path class="cls-1" d="M7 17.34a1.29 1.29 0 01-.91-2.2L17.64 3.62a1.29 1.29 0 011.82 1.82L7.94 17a1.29 1.29 0 01-.94.34zm30.92 0A1.31 1.31 0 0137 17L25.5 5.44a1.27 1.27 0 010-1.82 1.29 1.29 0 011.82 0l11.51 11.52a1.27 1.27 0 010 1.82 1.29 1.29 0 01-.91.38zm-15.44 23.3a1.28 1.28 0 01-1.29-1.28V17.27a1.29 1.29 0 112.57 0v22.09a1.28 1.28 0 01-1.28 1.28zm5.52.28a1.49 1.49 0 01-.36-.05 1.3 1.3 0 01-.88-1.6l6.51-22.63a1.29 1.29 0 112.47.72L29.24 40a1.3 1.3 0 01-1.24.92zm-11 0a1.28 1.28 0 01-1.28-.92L9.21 17.36a1.3 1.3 0 01.89-1.6 1.28 1.28 0 011.59.88l6.5 22.63a1.29 1.29 0 01-.88 1.6 1.48 1.48 0 01-.31.05z"/><path class="cls-1" d="M38.58 29.53H5.92a1.29 1.29 0 110-2.57h32.66a1.29 1.29 0 010 2.57z"/></svg>