<svg width="360" height="467" fill="none" xmlns="http://www.w3.org/2000/svg"><path d="M174.66 83.5c2.78 3.59 4.36 5.36 5.58 7.34.358.91.358 1.92 0 2.83-1.4.36-4 .8-4.2.31-3.37-7.3-9.91-8.64-16.82-9.43-.18 0-.32-.25-1.89-1.57a76.73 76.73 0 0132 .66c-3.3-11.36-11.66-17.44-23.9-17.55-.6 0-1.51-1.11-1.75-1.87-4-12.65-7.73-25.35-11.77-38-1.9-5.93-5.24-11.86-.57-17.75C157 1.35 164.8.7 173.21 2c35.86 5.54 57.36 29 73.48 59 7.2 13.43 13.88 27.15 25.71 37.38.62.53 1.21 1.08 1.74 1.55 2.3-5.06 4.53-10 7.56-16.64l-8.45 10.46-1.34-1.11a32.729 32.729 0 002.36-3.86c2.44-5.64 4.73-11.34 7.18-17a17.624 17.624 0 012.15-3c.58 1 1.74 2 1.65 2.87-.47 4.86-.68 9.85-2.06 14.48-1.55 5.23-4.64 10-6.11 15.25-.31 1.12 3.63 5 5.37 4.85 7.12-.63 14.1-2.92 21.22-3.44 5.49-.41 10.86 1.4 13.26 7.41a3.17 3.17 0 010 2.58 2.64 2.64 0 01-1.232.387 2.64 2.64 0 01-1.268-.247c-8-4.78-16-4.39-24-.15a4.09 4.09 0 01-3.1-.1c8.16-3.76 16.21-8.27 25.64-2.58-2.67-7-15.79-7.35-30.29-1.07 8.16 8.13 8.57 18.39 8.07 28.86-.05 1-1.06 1.92-1.62 2.88-.36-1-1.07-2-1-3 .66-12.2-1.82-23.1-11.48-31.68-13.53-12-23.54-26.27-31.52-42.91C234.89 41.9 220 23.46 198.66 11.6c-1.28-.71-2.59-1.35-3.93-1.93-8.84-3.87-12.6-1.51-14.21 7.94-3.54 21 3.84 39.21 12.46 57.62C201.75 94 210.4 113 216.7 132.64c3.61 11.28 2.93 24.07 3.33 36.22.53 16.07 1.73 31.73 12.4 45.56-1.14-.66-2.58-1.08-3.38-2-8.93-10.72-10.84-23.64-11.25-37-.36-12.09 1.72-24.81-1.37-36.13a207.343 207.343 0 00-19.91-47.25c-2.77-4.87-13.19-5.39-21.86-8.54zm16.22-6l-1.41 1c-3.66-11.44-8-22.72-10.77-34.38-2.93-12.47-4.26-25.3 4.34-37.93-6.35-.47-12.28-1.38-18.18-1.23-11.35.28-15.22 6.31-11.39 17 3.28 9.18 6.9 18.25 9.89 27.52 2.34 7.28 3 14.44 13.48 16.12 5.16.77 9.39 7.69 14.04 11.85v.05zM79.27 210.53c2.09 2 5.62 3.68 6 5.94 1.85 10.44 8.5 16.52 16.72 22.18 7.67 5.29 9.68 14 10.3 22.88.45 6.4 2.9 11.53 7.2 14.12-.65-7-1.76-14.71-2-22.47-.22-8.4-4.32-13.13-11.88-16-14.29-5.52-17.28-10.95-15.01-26.18.12-.78 1.06-1.45 1.62-2.17a6.69 6.69 0 011.07 2.17c.16 1.87 0 3.76 0 5.64.11 10.17 3.57 15.94 13.33 18.64 9.49 2.63 13.19 8.27 13.11 17.64 0 5.08-.38 10.67 1.54 15.11 2.16 5 6.26 9.5 10.34 13.34s9.35 6.56 13.92 10c8.51 6.43 18.1 7.89 27.67 7-1.24-7.26-3.53-14.36-3.36-21.4.17-7.04 2.83-13.88 3.66-21-.58 2.15-1.08 4.34-1.8 6.45-.25.75-1 1.33-1.59 2a8.258 8.258 0 01-1.3-2.06c-3.08-11.37-.89-21.85 5.52-31.54a4.489 4.489 0 013-1.63c-4.91 8.28-8.89 16.54-6 26.37l6-8.42c-2.17 16.81-10.74 32.76.47 49.21 0-5 .48-10-.1-14.81-1.14-9.62 1.16-18.11 5.64-26.67 3.88-7.42 6-15.77 8.92-23.67a10.746 10.746 0 011.73-2.38c.32.86 1.1 1.86.89 2.56-1.87 6.28-2.45 13.65-6.21 18.51-8 10.38-8.58 21.5-8 33.67.37 7.68-1.3 15.47-2.18 23.2 0 .51-1.17.9-1.79 1.34-.31-.65-1-1.37-.86-2 1-5.74-1.28-7.51-7-6.75-12.78 1.69-23.5-1.94-33.55-10.73-6.27-5.48-15.32-7.76-24.08-10.2l5.8-.82c-7.6-5.31-7.19-13.47-8-21.23a19.998 19.998 0 00-10.29-16c-7.36-4.12-12.04-9.96-14.02-18.37-.86-3.66-3.69-6.85-5.62-10.26l.19-1.21zM229.16 405.5c0 6.34 8.26 13 2.67 21.25-.43.63-1.61.75-1.21.58-.76-5.33-1.63-10.48-2.19-15.66-.74-6.77-1.27-13.57-1.8-20.37-.77-9.77.43-20.17-2.57-29.18-5.87-17.6-3.06-34.69-1.55-52.24 1.2-13.88.22-27.95.27-41.94a6.88 6.88 0 01.92-2.29c.67.74 1.91 1.48 1.93 2.24.23 11.41 1.21 22.9.21 34.21-1.65 18.65-6 37.18-.11 55.81.21.69.44 1.38 1.25 3.9V349.7c0-3.45-.25-6.91.07-10.33.29-3.18.34-6.85 1.95-9.36 8.41-13.13 7-26.88 4.94-41.39-1.5-10.49 0-21.41.24-32.13a4.652 4.652 0 01.75-2.68c7.83-9.73 7.86-21.19 8.16-32.89.13-5.24 2.72-10.56 4.83-15.57 2.87-6.8 6.31-13.36 9.6-20 .38-.77 1.34-1.25 2-1.87.13.91.64 2 .33 2.71a72.259 72.259 0 01-4.85 10.47c-6.67 10.57-9.36 22-9.36 34.46 0 5.33-1.17 11.35-3.83 15.86-7.62 12.94-7.26 26.82-4.85 40.38 2.51 14.19 2.3 26.81-3.85 40.56-4.06 9.09-2.74 20.93-2.52 31.5.21 9.58 2.48 19.09 3.28 28.68.33 3.95-.59 8.06-1.37 12-.36 1.61-1.81 2.98-3.34 5.4zm1-22.87h-.81c-.38 6.26-.753 12.527-1.12 18.8l1.93.05v-18.85z" fill="#1E1E1E" stroke="#1E1E1E" stroke-width="2" stroke-linecap="round" stroke-linejoin="round"/><path d="M153.57 209.55c1.66-25.45 4.07-36.07 8.09-37.25.47 10.45 1 21 1.44 31.55l1.93.05c-3.62-13.26 4.19-23.47 8.42-34.73 2.13-5.67 2.1-12.11 3.49-18.09 1.27-5.49 3.08-10.87 4.81-16.25.18-.56 1.37-.8 2.37-1.33-3.92 15.69 3.94 32.73-8.31 46.49 9.05-9.44 14.09-20 12.28-33.23-1.4-10.22 3-18.93 8.83-27a11.45 11.45 0 012.9-2.2c-2.79 6.78-5.78 13.32-8.13 20.08a19.212 19.212 0 00-.79 9.27c1.76 9.89-1.13 18.23-7.09 26-7.37 9.6-9.36 20.68-8.3 32.52.11 1.26-.94 2.61-1.44 3.92-.52-1.31-1.38-2.59-1.49-3.92-1-12.34-1.4-24.54 5.52-35.78 1.58-2.58 1.49-6.19.81-9.75-4 11.42-8.39 22.73-11.73 34.34-1.07 3.68.87 8.17 1.06 12.3.08 1.66-.86 3.36-1.34 5-1.33-1.13-3.49-2-3.83-3.42-1.53-6.1-2.61-12.33-3.68-18.53a31.646 31.646 0 010-5.42l-2-.07c-.39 7.44-1 14.89-1.1 22.34-.07 7 3.83 14.28-.94 20.76l-3.22.12c-1.35-13.4-3.52-26.79-3.65-40.2-.05-5.11 4.55-10.26 7-15.39 2.61-5.41 5.16-10.85 7.84-16.23.38-.78 1.3-1.3 2-1.94.16.87.73 1.92.43 2.57-1.86 4-3.31 8.48-6 11.91-10.06 12.69-11.68 26.39-6.18 41.51zm-71.39 50.56c1.06.432 2.067.986 3 1.65 6.3 5.73 12.53 11.53 18.79 17.3l2.48-2.48c-3.94-4.08-7.24-9.24-12-12-8.86-5.19-18.55-8.94-27.84-13.4-2.59-1.24-5-2.83-8.93-5.08 2.47-.21 3.49-.62 4.16-.3 10.22 4.907 20.41 9.877 30.57 14.91 7.88 3.9 13.85 9.54 16.62 18.18a5.602 5.602 0 002.65 2.75c9.86 5.32 14.13 13.6 13.85 24.68-.27 10.73-.75 21.5-.07 32.18.56 9 3 17.68 10.89 23.71-7.4 3.34-23.27-20.53-26.7-39.5-10.2-.8-19.83-11.21-19.68-21.7a175.03 175.03 0 011.29-20c.64-5 .51-9-4-12.32-2.46-1.84-4-5-5.93-7.48l.85-1.1zm28 23.74c2.63 23-4.1 47.31 12.54 64.48 0-10.87-.27-23.48.08-36.08.32-11.25-.61-21.75-12.61-28.4h-.01zm-16-8.86c-.5 9.1-1.32 17.57-1.32 26.05s7.85 17.26 16.38 19.28c-.5-11.23-.9-22.45-1.59-33.65-.12-2-.88-4.58-2.29-5.61-3.12-2.31-6.85-3.8-11.17-6.06l-.01-.01zm206.58-101.78c.92.71 2.22 1.22 2.71 2.16 5.21 10 3.67 20.45 1.62 30.87-1.35 6.83-3.45 13.6-4 20.49a17.589 17.589 0 003.39 11.15c6.13 7.9 7.37 15.44 2.56 24.55-8.07 15.28-12.12 31.7-11.09 49.09.22 3.62 1.5 7.24 2.71 10.71 2.08 6 5.84 11.69 6.42 17.75.67 6.93-1.32 14.12-2.24 21.18a51.85 51.85 0 01-1.34 5.34c-.87-9.5-1-15.88-2.13-22.1-1.43-8.19-3.52-16.27-5.45-24.36a14.232 14.232 0 00-2.09-4.84c-7.64-10.72-8.08-21.43-1.52-33 2.9-5.13 4.29-11.24 5.58-17.09.54-2.45-1-5.34-1.5-8.05a21.576 21.576 0 01-.19-2.54c.83.38 2.38.75 2.38 1.14 0 6 .77 12.26-.41 18.08-1.63 8-5.45 15.65-6.9 23.7-.74 4.08 1.66 8.73 3.09 15.11 1.29-10.19 1.57-18.36 3.52-26.1 2.09-8.29 5.43-16.33 8.88-24.19 2.45-5.58 4.5-11.5.68-16.34-9.16-11.64-7.08-23.69-3.71-36.47 3.11-11.73 4.65-23.68-.97-36.24z" fill="#1E1E1E" stroke="#1E1E1E" stroke-width="2" stroke-linecap="round" stroke-linejoin="round"/><path d="M152.86 145.87c-4.45 7.82-9.51 15.61-13.36 24-1.76 3.83-1.13 8.76-1.19 13.36 2.34-13.72 11.88-22.43 20.54-32.12 5.59-6.26 9.57-14.37 12.75-22.27 5.08-12.62 13.81-20.23 26.75-23.46a22.634 22.634 0 012.46-.33c-.15.51-.18.85-.27.88-16.58 3.9-22.24 17.83-29.49 30.87-4.89 8.79-11.43 16.86-18.22 24.36-8.83 9.67-11.83 21.23-13.63 33.55-.25 1.67-1.28 3.22-1.94 4.83-.76-1.53-2-3-2.21-4.6-1.61-15.25-.14-29.79 10.36-42.09a9.098 9.098 0 001.09-2.75 11.625 11.625 0 00-2.9-.58c-4.86.28-9.73.51-14.57 1.06-12 1.36-18.35 9.17-22.42 19.67-.76 2-2.25 3.65-3.91 6.24-4.1-11.53 2.11-24.54 12.76-28.83 10.43-4.21 21.38-7.37 31.24-12.62 6.75-3.6 12-10 18-15.11a10.45 10.45 0 013.15-2.14c-5.11 10.7-13.57 17.35-24.57 21.12-8 2.73-15.82 5.83-23.77 8.66-8.35 3-12.47 9.21-14.16 19.41 7.86-16.37 21.26-18.39 35.69-18.76 4.27-.1 8.55-1.67 11.82-2.35zm113.55 117.56c-10.43 12-7.35 24.27-3.64 37.42 1.45 5.15-1.8 12.08-4.07 17.73-2.53 6.28-3.59 13.05 1.25 17.22 6.16 5.29 5.82 11.7 5.6 17.86-.22 6.16-3.44 12.27-4 18.51a36.496 36.496 0 002 15.89c2.82 7.23 1.29 13.69-.91 20.36-2.67 8.09-4.85 16.05 2.8 23.53-1.12-.37-2.54-.43-3.3-1.16-4.9-4.72-5.92-10.3-4.14-16.9 1.78-6.6 5.77-14.71 3.47-19.71-6-13-1.76-24.52.72-36.7.78-3.84.12-8-.38-12.05-.15 12.11-5.21 22.16-12 31.72-4.11 5.75-2.73 8 3.2 11.71 2.28 1.43 4.22 5.49 4.07 8.22-.29 5.33-2.43 10.52-3.28 15.85-.47 2.91.17 6 .25 9 0 1.08-.09 2.16-.14 3.24-.88-.92-2.53-1.87-2.5-2.74.26-6 .23-12.05 1.51-17.83 1.95-8.8 1.2-11.11-5.95-16.43-1.53-1.13-2.19-5.39-1.33-7.38 2-4.74 5.43-8.87 7.89-13.45 6.06-11.25 7.14-22.61 1.82-34.76-1.49-3.42-.9-8.93.88-12.37 5-9.65 5.73-19.09 1.2-28.8-4.94-10.58-.33-19.15 5.24-27.6.38-.58 1.39-.75 2.1-1.12l1.64.74zM189.75 97.12c-6.71.77-13.4 1.72-20.13 2.25-5.71.44-11.47.19-17.19.61-7 .52-13.14 3.64-16.12 9.9-8.15 17.16-21.56 24.7-40.22 25.61-5.51.27-10.82 4.74-15.42 8.11 8.07-.94 16.14-1.83 24.19-2.85 11.73-1.47 21.86-5.46 28.39-16.34 5.88-9.79 16-12.33 26.58-13.38-3.05.74-6.38.94-9.09 2.33-4.51 2.31-10.32 4.41-12.61 8.33-9.1 15.58-23.3 20.38-39.82 20.9-9.42.29-16.78 3.65-22.62 11.19a86.407 86.407 0 01-12 12.2c-1.79 1.55-4.68 1.83-7.07 2.69-.45-.68-.9-1.37-1.36-2a18.096 18.096 0 003.2-1.8c3.88-3.33 8.66-6.13 11.31-10.28 8.91-14 21.73-21.56 37.15-26.37 8.2-2.56 12.86-9.8 18-16.64 3.48-4.67 10-7.26 15.58-10.13 10.68-5.54 22.36-3.69 33.76-3.9 5.12-.09 10.23-1 15.35-1.49.03.32.08.69.14 1.06zm-53.65 5.72l-9.72 10c-4.94 5.14-9.63 10.54-14.91 15.3-2.23 2-5.69 2.65-8.23 3.75 18.95.61 25.15-15.29 32.86-29.05z" fill="#1E1E1E" stroke="#1E1E1E" stroke-width="2" stroke-linecap="round" stroke-linejoin="round"/><path d="M11.22 247.74l6.83 4.14c-3.3-.58-4.79-.53-6-1.1-13.47-6.4-15-24-1.83-33.75 16.79-12.49 34.39-23.91 52-35.19a19.932 19.932 0 008.21-9.68c1.32-3.08 3.93-5.59 6-8.35l1.46 1.19-4.59 6.6 1.62 1.22 15.2-19.48 1 .78c-2.2 5.52-4.403 11.047-6.61 16.58l.79.27c4.287-5.82 8.58-11.643 12.88-17.47l1.48 1.06c-.93 1.46-2 2.86-2.77 4.39-3.25 6.17-6.81 12.21-9.51 18.62-1.93 4.58-3.15 9.27-8.19 10.91l4.51-19.94c-8.5 4.31-12.06 9.59-11.14 17.69.24 2.1-.9 4.36-1.41 6.55a41.679 41.679 0 01-3.07-6.17c-.54-1.73-.27-3.72-.4-6.39-5.08 3-10 5.6-14.54 8.73-13.49 9.27-27 18.54-40.14 28.27-7 5.21-10.31 12.85-8.2 21.53.81 3.35 4.28 6.07 6.53 9.07l-.11-.08zm197.59-103.19c-1 7.26-2.09 15.51-3.23 23.76-1.43 10.36-.12 20.49 5.36 29.27 6.88 11 5.78 21.89 2.83 33.63-2.32 9.25-3 18.91-4.44 28.38-.11.71-.89 1.31-1.36 2-.55-.6-1.59-1.21-1.58-1.8.24-7.73 1.28-15.49.82-23.17-.73-12.27-2.42-24.47-3.71-36.71-.88-8.28-2.57-16.58-2.41-24.85.12-5.94 3.35-11.76 4-17.77.75-6.65.14-13.46.21-20.2a8.59 8.59 0 01.86-2.51c.66.7 1.74 1.32 1.89 2.12.45 2.21.48 4.53.76 7.85zm2.48 83.93c3.87-11.17 2.39-22-5-32.61 1.71 11.39 3.38 22.13 5 32.61v0zm59.6 33.27c-2.81-11.29-6.21-21.33-7.65-31.64-2.37-17-.08-32.89 14.91-44.49 8.31-6.43 10.47-15.41 8.73-25.55-.15-.9.63-2 1-2.94.59.81 1.54 1.55 1.72 2.45 1.95 9.52 1.54 18.6-7.38 24.69-16.23 11.09-17.85 27.78-16.46 44.84.76 9.35 4.86 18.4 7.15 27.67.65 2.63.2 5.53.26 8.3-2.45-2-6.39-3.49-7.09-5.95a188.33 188.33 0 01-6.3-29.13c-1.63-13.82-1.11-27.66 3.77-41.07 1.09-3 .65-6.58 1.08-9.87.29-.87.73-1.682 1.3-2.4.5.74 1.51 1.56 1.4 2.18-.71 4-1.6 7.9-2.55 11.81-5.68 23.35-3.78 46.25 4.57 68.69.448.843.963 1.649 1.54 2.41zm-73.75-216.6c-1.27 8 2.28 14.12 6.89 19.45 8.41 9.73 13.95 21.05 14.7 33.5.77 12.72 6.44 21.52 15.44 29.79a13.243 13.243 0 01-3.26-1.3c-9.19-6.9-14.91-15.48-15.22-27.58-.32-12.6-5.5-23.48-13.73-33.1-5.53-6.47-9.54-13.81-7.43-22.89a13.018 13.018 0 011.72-3.09c1 .77 2.65 1.37 2.89 2.32 3.09 12.57 13 18.22 23.38 23.38 11.92 5.9 17.38 15.63 17.12 28.82-.12 6 0 12.1-.09 18.15 0 .85-.94 1.69-1.44 2.53-.39-.82-1.1-1.63-1.11-2.46-.08-5.74-.06-11.48 0-17.22.15-12.85-5.06-22.57-16.68-28.5-9.78-4.95-20.21-9.23-23.18-21.8zm139.11 273.13c-4.86-9.32-1.09-18 0-26.66 1-7.59 1.71-15.24 2.16-22.89a9.337 9.337 0 00-2-6.12c-5.58-6.39-5.67-13.43-3.68-21.1 1.47-5.71.14-10.77-4.4-15.42 1.28.55 2.87.8 3.8 1.71 4.44 4.36 4.22 9.69 3.4 15.42-.55 3.83-1.25 8.81.61 11.6 6.81 10.18 5.88 20.62 3.34 31.55a107.155 107.155 0 00-2.46 14.76c-.78 9 2.18 16.26 10.39 21.07 2 1.18 3.3 3.64 4.92 5.51-2.1-.86-4.23-1.66-6.31-2.58-2.08-.92-4-2.26-6.13-2.92-13.08-4-18.09-13.8-13.54-26.69 2.59-7.33 5.16-14.66 7.84-21.94.21-.58 1.18-.87 1.8-1.29.28.77 1 1.69.79 2.28-1.78 5-3.53 10-5.66 14.81-2.85 6.46-6.25 12.94-2.51 19.93 1.88 3.37 5.08 6 7.64 8.97zm-20.15-148.2c-.89-8.08-2.48-15.21-8.67-18.9-5.66-3.37-12.52-4.71-19.38-7.13 2.4.15 4.59.16 6.76.42 16.28 1.9 23.11 9.37 23.66 25.83.35 10.63.47 21.28 1 31.9.42 7.54 2.22 14.64 9.88 18.55-.37.57-.74 1.14-1.1 1.71-3.26-2.11-8.42-3.58-9.37-6.45-2.21-6.66-2.67-14-3.29-21.07-.45-5.26.61-10.69-.13-15.88-2.11-14.67-13.29-21-25.36-26.34a8.003 8.003 0 01-3.73-2.6c11.76 3.14 22.29 8.21 29.73 19.96zm-193.19 66.69c-.69.43-1.43 1.22-1.9 1.08a2.534 2.534 0 01-1.24-1.76c-.86-4.71-1.54-9.45-2.45-14.15a13.508 13.508 0 00-1.63-3.27c-.88.75-1.71 1.56-2.63 2.24-.688.426-1.406.801-2.15 1.12l-1.36-1.48 6.7-6.5c2.07 4 4.13 7.95 6.42 12.35-.37.1.57-.14-.37.1 4.06 6.92 8.08 13.06 11.29 19.59 1.44 2.93 1.28 6.65 2.68 10.06v-10.59c0-3.73-.62-7.58.13-11.14.68-3.17 2.86-6 4.77-9.8-1.13 12.28-2.64 23-2.91 33.8-.17 6.9 1.52 13.84 2.33 20.76.055.933.055 1.867 0 2.8-.88-.49-2.31-.79-2.54-1.49-1.83-5.54-4.59-11.1-4.82-16.75-.35-8.58-.54-16.66-7.72-22.77-1.19-.97-1.75-2.78-2.6-4.2z" fill="#1E1E1E" stroke="#1E1E1E" stroke-width="2" stroke-linecap="round" stroke-linejoin="round"/><path d="M324.57 261.83c-2.81 8.32-5 16.36-8.21 24-9.39 22.23-7.45 31.65 10.25 48.12 8.06 7.5 15.79 15.37 23.56 23.18.7.71.54 2.25.79 3.41a16.822 16.822 0 01-3-1.91c-7.11-7-14-14.27-21.26-21.06-22.46-20.91-24-28.61-11.69-56.64a68.55 68.55 0 005.14-18.49c.42-3.24-2.06-6.86-3.22-10.32-.26-.77-.45-1.57-.68-2.36.89.18 2.3.07 2.58.57 1.96 3.61 3.71 7.37 5.74 11.5zM115 161.75c-2.43 7.93-5 16.35-7.61 24.78l2.2.79c1.43-10.87 8.29-18 16.81-26.42-1.64 11.55-13.05 17.53-10.23 27.26 6.73-9 13.9-18.51 21.06-28.07l1.56 1.07c-2.94 4.17-5.27 9-9 12.35-7.41 6.73-10.56 15-11.36 24.57-.1 1.2-1.09 2.32-1.67 3.47a12.774 12.774 0 01-1.55-3.21c-.82-4.69-1.44-9.42-2.2-14.55-.65 3.61-1.19 7-1.9 10.25a2.494 2.494 0 01-1.44 1.67c-.49.09-1.39-.67-1.73-1.27-4.41-7.59-.65-27 6.26-32.42.6-.44 1.47-.48.8-.27z" fill="#1E1E1E" stroke="#1E1E1E" stroke-width="2" stroke-linecap="round" stroke-linejoin="round"/><path d="M343.52 330.07c1.69.91 3.7 1.5 5 2.78 8.27 8 8.69 18.68 9.86 29.16 2.93 26-9.43 43.75-30.1 57.44-13.37 8.86-26.64 17.93-39.38 27.66-5.95 4.54-10.51 10.9-15.74 16.39a8.579 8.579 0 01-3.3 2.17c6.64-11.09 16.31-19 26.66-26.26 12-8.41 24.29-16.54 36.17-25.16 19.82-14.39 26.12-34.15 22.38-57.81-1.51-9.71-3.24-19.18-11.55-26.37zm-159.61-20.55c-1.65 6.32-2.49 13.56-5.42 19.82-4 8.49-3.55 16 1.09 23.72 5.08 8.43 8.41 17.39 6.61 27.34-1.88 10.43-4.36 20.76-6.67 31.11-.13.59-1.06 1-1.62 1.51-.33-.74-1.09-1.58-.94-2.21 1.3-5.56 2.38-11.23 4.26-16.61 4.67-13.33 3.82-26.07-3.55-38.13-5.57-9.12-6.87-17.82-1.73-27.95 2.95-5.82 3.06-13.06 4.53-19.64a36.71 36.71 0 011.58-4.36l1.86 5.4zm-30.51-80.75c-4.71 12.08-2.8 22.29 4.48 30.48l5.84-24.74 1.71.54c-2.27 18.44-8.82 36.82-.8 56.43-1.38-.73-3.06-1.06-3.75-2.06a26.478 26.478 0 01-4.74-20c.55-3.51-.8-7.87-2.6-11.1-4.9-8.77-6.22-17.59-2.45-27 .41-.95 1.52-1.68 2.31-2.55z" fill="#1E1E1E" stroke="#1E1E1E" stroke-width="2" stroke-linecap="round" stroke-linejoin="round"/><path d="M186.41 309.75c6.37-2.45 14.26 4 13.35 11.93-1.07 9.35-4 18.56-6.73 27.62-4.59 15-4.37 18.05 4 31.34-1.14-.57-2.59-.86-3.38-1.75-7-8-7-17.27-4.36-26.79 2.64-9.52 6.2-18.79 8.11-28.41.73-3.64-2-8-3.48-12.93-1.89 5.36-3.47 8.66-4.18 12.14-1.11 5.38-1.61 10.88-2.41 16.32a22.452 22.452 0 01-.72 2.61c-.69-.69-2-1.46-2-2.05.63-5.29.48-11 2.6-15.7 2.41-5.28 4-9.59-.8-14.33zM67.17 263c-6.7 12.68-18.28 18.4-31.68 20.43a41.488 41.488 0 01-18.62-1.24c-11-3.64-13.56-12.54-7.6-22.46a14.682 14.682 0 015.91-5.91c-1.48 2.92-3.16 5.76-4.38 8.8-3.83 9.5-.85 15.66 8.9 18.85 15.07 4.93 35.91-3 43.92-16.75a21.473 21.473 0 001.4-4l2.15 2.28zm3.75-51.51c1.43.789 2.8 1.681 4.1 2.67a4.38 4.38 0 011.46 2.71c.54 10.62 7.25 16.28 15.59 21.56 3.11 2 4.08 7.41 5.86 11.34.17.37-.85 1.27-1.32 1.92-.4-.47-1.12-.94-1.15-1.43-.34-7.77-5.23-12.08-11.7-14.8-5.22-2.2-7.55-5.9-8.59-11.28-.8-4.12-2.65-8.05-4.25-12.69z" fill="#1E1E1E" stroke="#1E1E1E" stroke-width="2" stroke-linecap="round" stroke-linejoin="round"/><path d="M197.51 366c2.42 1.89 3.89 2.44 4.19 3.36 3 9.32 1.45 17.75-4.94 25.35-3.91 4.66-7.43 9.64-11.2 14.42-.46.59-1.36.82-3.22 0 3-3.53 5.79-7.25 9-10.56 8.71-8.86 11.22-19.4 6.17-32.57zM31.24 285.58a14.93 14.93 0 013.41 1.27c14.13 9.58 29 14.67 45.78 7.39 2.66-1.16 4.95-3.16 8.41-5.43-10.43 13.56-40.65 12.8-57.6-3.23zm-19.92-37.76c2.49-1.88 5.09-3.64 7.4-5.71 1.18-1.06 1.82-2.7 2.71-4.08a20.11 20.11 0 00-4.27-1.35c-2.25-.2-4.59.31-6.8-.07-.85-.14-1.74-1.81-2-2.93-.15-.6.94-1.52 1.62 0a49.984 49.984 0 006.46 1.78c1.49.22 3.58-1 4.53-.33a10.78 10.78 0 012.79 4.49c-4 2.9-8.29 5.51-12.5 8.16l.06.04z" fill="#1E1E1E" stroke="#1E1E1E" stroke-width="2" stroke-linecap="round" stroke-linejoin="round"/></svg>